<svg width="22" height="21" viewBox="0 0 22 21" fill="none" xmlns="http://www.w3.org/2000/svg">
<path fill-rule="evenodd" clip-rule="evenodd" d="M17.5606 17.4121H13.6108C8.69893 17.4121 4.71706 13.5432 4.71706 8.77066C4.71706 7.05398 5.23224 5.45422 6.12058 4.10938C2.71142 5.31902 0.27771 8.49786 0.27771 12.229C0.27771 17.0015 4.25958 20.8705 9.17147 20.8705H17.5606V17.4121Z" fill="#33B7FF"/>
<path fill-rule="evenodd" clip-rule="evenodd" d="M6.12112 4.10905C7.07254 3.77153 8.09991 3.58737 9.17156 3.58737H17.5607V17.4126H22V0.129639H13.6109C10.4661 0.129639 7.70255 1.7155 6.12112 4.10905Z" fill="#EF4161"/>
<path fill-rule="evenodd" clip-rule="evenodd" d="M17.5606 17.4124H13.6107C8.69882 17.4124 4.71695 13.5434 4.71695 8.7709C4.71695 7.05389 5.23233 5.45385 6.12099 4.10884C7.0724 3.77132 8.09977 3.58716 9.17141 3.58716H17.5606V17.4124Z" fill="#302F61"/>
</svg>
