<svg width="15" height="15" viewBox="0 0 15 15" fill="none" xmlns="http://www.w3.org/2000/svg">
<path d="M7.50002 0C7.83816 0 8.15008 0.182083 8.31636 0.476512L10.4195 4.20077L14.2403 4.93889C14.5759 5.00372 14.8496 5.246 14.9546 5.57122C15.0597 5.89642 14.9795 6.25304 14.7452 6.5019L11.9716 9.44888L12.6726 13.9172C12.7266 14.2617 12.5849 14.6077 12.3049 14.8154C12.0248 15.0232 11.6527 15.0583 11.3386 14.9067L7.50002 13.0528L3.66141 14.9067C3.34742 15.0583 2.9752 15.0232 2.69515 14.8154C2.4151 14.6077 2.27348 14.2617 2.32752 13.9172L3.02844 9.44888L0.254833 6.5019C0.0206042 6.25304 -0.0596416 5.89642 0.0454052 5.57122C0.150452 5.246 0.424147 5.00372 0.7597 4.93889L4.58058 4.20077L6.68369 0.476512C6.84996 0.182083 7.16189 0 7.50002 0Z" fill="#FFB800"/>
</svg>
